<svg width="80" height="80" viewBox="0 0 80 80" fill="none" xmlns="http://www.w3.org/2000/svg">
<path fill-rule="evenodd" clip-rule="evenodd" d="M40.0515 0C61.9462 0 79.724 17.6842 79.724 39.5789C79.724 41.6374 79.5368 43.6958 79.2561 45.7543H76.8234C77.1041 43.6958 77.2912 41.6374 77.2912 39.5789C77.2912 18.9941 60.6363 2.33918 40.0515 2.33918C19.4668 2.33918 2.81183 18.9941 2.81183 39.5789C2.81183 60.1636 19.4668 76.8186 40.0515 76.8186C45.7591 76.8186 51.0925 75.5086 55.9579 73.263V75.8829C51.0925 78.0349 45.6656 79.1578 40.0515 79.1578C18.1568 79.1578 0.472656 61.4736 0.472656 39.5789C0.472656 17.6842 18.1568 0 40.0515 0Z" fill="#9EB4AF"/>
<path fill-rule="evenodd" clip-rule="evenodd" d="M16.3789 24.2337L29.0105 17.4033L38.9286 22.7366L48.7531 17.4033L61.4782 24.2337V38.4559C61.5718 38.9238 61.8525 40.0466 62.1332 40.608C63.6303 44.0699 64.4724 48.4676 62.9753 52.3038C60.0747 59.6956 51.2794 62.3155 44.9169 58.1986L38.18 61.7541L25.9227 54.8302V43.7892L16.3789 38.4559V24.2337ZM47.911 56.6079C52.028 58.3857 57.2677 57.2629 59.8876 52.491C62.1332 48.4676 60.8233 43.6957 58.7648 39.8594C57.8291 38.5495 52.6829 31.4384 51.5601 30.7834C50.6245 31.4384 47.6303 35.0875 46.8818 36.0232C46.5075 36.5846 44.7297 39.3916 44.3555 40.0466C43.1391 42.2922 42.1099 45.0992 42.1099 47.8126C42.1099 52.8652 45.2911 55.4851 47.911 56.6079ZM39.3964 48.7483C39.5835 51.9296 40.987 54.5495 42.6713 56.3272L38.2736 58.6664L28.7298 53.1459V42.105L38.9286 36.8653L42.0163 38.6431C40.3321 41.7308 39.1157 45.2863 39.3964 48.7483ZM58.6712 34.7132C57.9227 33.7776 57.1742 32.8419 56.4256 31.9998C55.9578 31.3448 54.5543 29.7542 53.8993 29.1928C53.525 28.8185 53.3379 28.6314 52.9636 28.2571C52.4958 27.8828 51.6537 26.9472 50.6245 27.8828C48.8467 29.4735 46.9753 31.5319 45.4783 33.4969C44.7297 34.339 43.9812 35.3682 43.3262 36.491L40.5192 34.9004L40.3321 25.0758L48.7531 20.491L58.6712 25.8244V34.7132ZM56.1449 43.8828C53.8993 44.7249 56.987 47.4384 54.9285 50.2454C54.6478 50.6196 54.3671 50.9003 54.2736 51.4617C54.2736 52.5845 56.0514 54.2688 57.642 50.9003C58.5777 49.029 58.4841 47.2512 58.0163 45.2863C57.7356 44.3506 57.1742 43.5085 56.1449 43.8828ZM37.4315 34.8068L37.5251 25.1694L29.0105 20.491L19.1859 25.8244V36.8653L25.9227 40.7015L37.4315 34.8068Z" fill="#9EB4AF"/>
</svg>
