<svg width="79" height="78" viewBox="0 0 79 78" fill="none" xmlns="http://www.w3.org/2000/svg">
<path fill-rule="evenodd" clip-rule="evenodd" d="M59.0632 55.109C57.0426 54.6497 55.573 53.9149 54.1953 53.0883C53.2768 46.2915 53.8279 40.5969 59.5225 39.0355L59.0632 55.109ZM36.5604 46.7508C36.0093 42.6176 36.0093 31.8713 40.7854 32.2387C43.449 32.4224 41.6121 45.373 41.1528 48.2203L36.5604 46.7508ZM44.092 49.2307C43.3572 44.7301 43.8164 43.9035 45.7452 41.3317C47.4903 39.1274 48.5007 38.0252 49.9703 35.9127L55.3893 37.8415C55.2975 38.0252 55.1138 38.2089 55.1138 38.3007C55.0219 38.3926 54.8382 38.6681 54.7464 38.76C54.7464 38.8518 54.5627 39.1274 54.4708 39.2192C52.0828 42.4339 47.4903 49.5062 44.092 49.2307ZM19.4766 23.5131L24.6201 25.3501L23.7935 41.3317L18.5581 39.5866L19.4766 23.5131ZM26.4571 42.7094C25.7223 38.6681 25.8141 37.4741 28.1104 34.5349C29.7636 32.3306 31.0495 30.861 32.9783 29.024L37.5707 30.861C36.9278 32.4224 37.6626 31.1366 36.3767 32.698L30.131 40.5051C28.937 41.791 28.6614 42.2502 26.4571 42.7094ZM29.3044 44.822L32.8865 40.5969C32.7946 40.5969 32.8865 40.6888 32.9783 41.0562C33.0702 41.5154 33.2539 41.6073 33.3457 41.791C33.805 43.1687 33.6213 42.342 33.9886 43.9953C34.8153 47.7611 33.6213 47.9448 40.418 50.6084C42.9898 51.6187 44.2757 52.5372 47.123 51.3432C49.2355 50.5165 49.9703 48.5877 51.7154 46.9345C51.2561 55.2008 51.4398 54.8334 58.2366 57.6807L62.7372 58.0481C62.7372 54.9253 60.6247 58.691 61.8187 47.9448C62.0942 44.6383 63.0127 40.3214 60.9002 37.8415C60.441 37.3822 52.0828 30.1262 46.0208 36.923L44.3675 38.76C44.9186 30.3099 44.5512 30.861 37.8463 28.1974C31.325 25.6257 30.2229 28.1974 27.0082 32.055L26.2734 23.5131L15.8945 19.6555C16.0782 23.605 17.3641 22.2273 17.0886 27.4626C16.9049 30.4936 16.0782 34.0757 16.2619 37.1067C16.6293 42.8931 23.9772 45.1893 29.3044 44.822Z" fill="#9EB4AF"/>
<path fill-rule="evenodd" clip-rule="evenodd" d="M39.3147 0C60.8072 0 78.1666 17.3593 78.1666 38.8518C78.1666 39.5866 78.1666 40.3214 78.1666 41.148H75.7785C75.8704 40.3214 75.8704 39.5866 75.8704 38.8518C75.8704 18.6452 59.5214 2.29621 39.3147 2.29621C19.1081 2.29621 2.7591 18.6452 2.7591 38.8518C2.7591 59.0585 19.1081 75.4075 39.3147 75.4075C44.9175 75.4075 50.1528 74.2134 54.8371 71.9172V74.489C50.1528 76.6015 44.8256 77.7955 39.3147 77.7955C17.8222 77.7955 0.462891 60.3443 0.462891 38.8518C0.462891 17.3593 17.8222 0 39.3147 0Z" fill="#9EB4AF"/>
</svg>
