<svg width="77" height="78" viewBox="0 0 77 78" fill="none" xmlns="http://www.w3.org/2000/svg">
<path fill-rule="evenodd" clip-rule="evenodd" d="M31.1236 58.2238C31.4875 59.6793 33.0341 59.4064 34.3987 59.4064H43.4962C44.224 59.4064 44.8608 59.4974 45.4066 59.0425C45.8615 58.7696 46.1344 58.1328 45.9525 57.496C45.5886 56.0404 43.951 56.3133 42.5864 56.3133C41.0398 56.3133 39.5843 56.3133 38.0377 56.3133C36.5821 56.3133 35.0355 56.3133 33.5799 56.3133C32.7612 56.3133 32.2153 56.2223 31.6695 56.5862C31.3056 56.8591 30.9417 57.496 31.1236 58.2238ZM46.2254 19.6505C46.4983 19.8324 47.59 20.3783 48.4998 19.7415C49.0456 19.3776 49.5915 18.3768 49.8644 17.649L51.411 15.0108C51.6839 14.4649 51.6839 13.7371 51.411 13.2823C51.138 12.6454 50.5012 12.4635 50.4102 12.2815C48.2268 12.0086 48.0449 13.2823 47.0442 14.9198C46.6803 15.4657 46.4074 16.1025 46.0435 16.7393C45.1337 18.1039 45.6796 18.1039 45.6796 19.0137C46.0435 19.2866 45.8615 19.3776 46.2254 19.6505ZM47.4081 25.5638V25.4729C47.2261 25.3819 47.2261 25.2909 47.0442 25.1999C46.8622 25.018 46.7713 25.109 46.7713 24.836C46.3164 24.6541 46.4074 24.6541 46.0435 24.3812C45.8615 24.1992 45.6796 24.1082 45.4976 24.0173C45.0427 23.7443 44.6788 23.5624 44.133 23.2895C43.951 23.1985 43.951 23.1985 43.7691 23.0166C43.4052 23.0166 41.9496 22.4707 41.4037 22.2888C39.5843 21.9249 37.6738 21.9249 35.8543 22.2888C35.3994 22.3797 33.9438 22.7436 33.6709 23.0166C32.6702 23.2895 32.2153 23.7443 31.3965 24.1082L29.85 25.2909C29.577 25.4729 29.4861 25.6548 29.2131 25.9277C28.4853 26.5646 27.8485 27.3833 27.3936 28.2021C27.1207 28.657 26.5749 29.5667 26.4839 30.1126C26.12 30.4765 25.7561 32.114 25.5742 32.8418C25.0283 35.935 25.6651 39.301 27.2117 41.8483C28.9402 44.5775 30.0319 45.4873 31.0326 49.1263C31.3056 50.127 31.3965 51.4007 32.6702 51.1277C33.9438 50.8548 33.6709 49.4902 33.398 48.6714C32.5792 45.3053 31.4875 43.7588 29.668 41.2115C27.3936 37.9364 27.1207 33.3877 29.3041 29.7487C33.125 23.1985 42.0406 22.8346 46.3164 27.9292C46.6803 28.2931 46.8622 28.475 47.2261 28.9299C49.9554 32.7508 49.7734 38.0274 47.1352 41.4844C46.0435 42.94 45.3157 44.0317 44.4059 46.1241C44.133 46.8519 43.0413 49.6721 43.4962 50.4909C43.7691 50.9458 44.042 51.1277 44.5879 51.1277L44.8608 51.0368C45.4976 50.9458 45.4976 50.8548 45.6796 50.309C45.8615 49.7631 45.9525 49.0353 46.2254 48.3985C46.4074 47.6707 46.5893 47.1248 46.8622 46.488C47.2261 45.7602 48.3178 43.6678 48.8637 43.3949C48.8637 43.2129 49.6824 42.1212 49.9554 41.5754C50.3193 40.9386 50.5922 40.3017 50.8651 39.5739C51.9568 36.3898 51.9568 32.8418 50.5012 29.7487C49.6824 28.1111 49.2276 27.4743 48.1359 26.2007L47.4081 25.5638ZM42.7684 65.4108C43.1323 64.41 41.4947 64.683 40.7669 64.683C39.7662 64.683 38.6745 64.683 37.6738 64.683C33.5799 64.683 33.398 64.319 34.3077 66.4115C34.8536 67.5941 34.5806 67.7761 36.0362 67.7761C36.855 67.7761 41.4947 67.958 41.8586 67.5032C41.9496 67.4122 42.6774 65.6837 42.7684 65.4108ZM17.1135 22.5617C17.2955 22.8346 17.3864 23.1985 17.5684 23.4714C17.8413 23.8353 17.8413 23.8353 18.2962 24.1082C19.2059 24.5631 20.2066 25.1999 21.2074 25.7458C22.1171 26.2916 23.2998 27.2014 24.4825 25.9277C24.6644 25.8368 24.7554 25.5638 24.8464 25.4729C25.2103 24.1992 24.9373 23.6534 24.0276 23.0166C23.8456 22.8346 23.9366 22.9256 23.9366 22.8346C23.2998 22.6527 22.572 22.1068 22.0261 21.8339C21.6622 21.6519 21.3893 21.47 21.1164 21.288C20.8435 21.1061 20.5705 21.0151 20.2976 20.8332C19.5698 20.3783 18.933 20.1963 18.1142 20.6512C17.3864 21.1061 17.2955 21.561 17.1135 22.5617ZM25.3922 13.8281C25.3922 15.3747 26.9388 17.0122 27.3936 18.2859C27.7575 18.5588 28.3034 20.4693 30.1229 19.9234C31.3056 19.6505 31.9424 18.2859 31.2146 17.0122C30.6687 16.1025 30.1229 15.1927 29.577 14.192C28.8492 13.0093 28.6673 12.0996 26.8478 12.2815C25.8471 12.8274 25.7561 12.6454 25.3922 13.8281ZM37.5828 9.46133C37.1279 10.0072 36.5821 10.0072 36.5821 11.1898C36.5821 12.2815 36.4911 15.8296 36.764 16.4664C37.4009 17.922 39.3113 17.922 40.1301 16.8303C40.6759 15.9205 40.494 13.0093 40.494 11.7357C40.494 9.73425 39.4933 8.8245 37.5828 9.46133ZM57.5972 20.4693C57.0514 20.5602 53.7763 22.4707 53.1395 22.9256C52.5027 23.2895 51.7749 24.0173 52.1388 25.1999C52.4117 26.0187 53.2305 26.7465 54.3221 26.5646C54.868 26.4736 58.1431 24.4721 58.7799 24.1082C60.7814 22.9256 59.6897 20.1054 57.5972 20.4693ZM15.476 31.7501C13.7474 32.3869 13.7474 34.6613 15.385 35.2981C15.9308 35.5711 20.5705 35.5711 21.2074 35.3891C22.9359 34.9342 23.1178 32.4779 21.3893 31.7501C20.7525 31.5682 16.2038 31.4772 15.476 31.7501ZM55.8687 31.7501C54.0492 32.205 54.0492 34.6613 55.5958 35.2981C56.2326 35.5711 60.6904 35.5711 61.5092 35.3891C63.2377 34.9342 63.2377 32.5689 61.7821 31.8411C61.1453 31.5682 56.5965 31.4772 55.8687 31.7501ZM45.3157 52.4014C44.7698 52.0375 44.6788 52.1284 44.042 52.1284H43.6781C40.9489 52.2194 37.9467 52.1284 35.1265 52.1284C33.8528 52.1284 32.1243 51.8555 31.3965 52.6743C30.5778 53.675 31.2146 55.0396 32.3973 55.2216C33.216 55.3126 39.4933 55.2216 40.9489 55.2216C43.0413 55.2216 45.7705 55.7674 45.9525 53.857C46.0434 52.9472 45.4976 52.6743 45.4066 52.4014H45.3157ZM31.1236 62.3176C31.3965 63.7732 32.8521 63.5913 34.3077 63.5913H43.4052C44.133 63.5913 44.7698 63.6822 45.3157 63.3183C45.6796 62.9544 46.0434 62.4086 45.9525 61.6808C45.6796 60.2252 44.133 60.4981 42.6774 60.4981H33.6709C32.9431 60.4981 32.2153 60.4071 31.6695 60.771C31.3056 61.044 30.9417 61.5898 31.1236 62.3176Z" fill="#9EB4AF"/>
<path fill-rule="evenodd" clip-rule="evenodd" d="M38.494 0C59.7821 0 76.9763 17.2852 76.9763 38.5733C76.9763 40.1198 76.8853 41.6664 76.7034 43.122H74.429C74.611 41.6664 74.7019 40.1198 74.7019 38.5733C74.7019 18.5588 58.5084 2.36534 38.494 2.36534C18.4796 2.36534 2.28609 18.5588 2.28609 38.5733C2.28609 58.4967 18.4796 74.6902 38.494 74.6902C44.0435 74.6902 49.229 73.5075 53.8687 71.3241V73.8714C49.229 75.8729 43.9525 77.0555 38.494 77.0555C17.2059 77.0555 0.0117188 59.7704 0.0117188 38.5733C0.0117188 17.2852 17.2059 0 38.494 0Z" fill="#9EB4AF"/>
</svg>
