<svg width="80" height="80" viewBox="0 0 80 80" fill="none" xmlns="http://www.w3.org/2000/svg">
<path fill-rule="evenodd" clip-rule="evenodd" d="M39.9037 0C61.8319 0 79.7132 17.7873 79.7132 39.8096C79.7132 41.88 79.525 43.9505 79.2427 46.021H76.7958C77.1722 43.9505 77.2663 41.88 77.2663 39.8096C77.2663 19.1048 60.5143 2.35281 39.9037 2.35281C19.1989 2.35281 2.44692 19.1048 2.44692 39.8096C2.44692 60.5143 19.1989 77.2663 39.9037 77.2663C45.5504 77.2663 50.9148 75.9488 55.8087 73.6901V76.3252C50.9148 78.4898 45.5504 79.6191 39.9037 79.6191C17.8814 79.6191 0 61.8319 0 39.8096C0 17.7873 17.8814 0 39.9037 0Z" fill="#9EB4AF"/>
<path fill-rule="evenodd" clip-rule="evenodd" d="M31.3399 65.9726C29.8341 62.6787 25.0344 56.0908 32.1869 49.1265C35.2926 46.1149 41.504 42.2563 40.657 35.1979C43.6686 36.986 46.0214 39.0565 47.4331 43.1033C49.3154 48.7501 47.6213 51.3852 46.0214 55.7144C48.3742 54.3968 50.2565 51.8558 51.1035 48.4677C54.1151 53.5498 51.48 61.9258 49.2213 65.7844C53.3622 64.2786 57.2208 58.0672 58.0678 53.3616C60.2324 41.5034 55.6209 30.0217 48.0919 21.8339C45.7391 19.2929 39.9982 14.4931 34.9162 13.6461C36.9866 20.234 35.1985 23.622 32.1869 28.61C27.1048 36.8919 17.8818 41.974 22.3051 55.432C23.8109 59.7612 27.5754 64.561 31.3399 65.9726Z" fill="#9EB4AF"/>
</svg>
