<svg width="20" height="19" viewBox="0 0 20 19" fill="none" xmlns="http://www.w3.org/2000/svg">
<path d="M9.57032 17.8125C7.92626 17.8125 6.31912 17.325 4.95214 16.4116C3.58515 15.4982 2.51972 14.2 1.89057 12.6811C1.26141 11.1621 1.0968 9.49078 1.41754 7.87832C1.73828 6.26585 2.52997 4.7847 3.69249 3.62218C4.85501 2.45965 6.33616 1.66797 7.94863 1.34723C9.5611 1.02649 11.2325 1.1911 12.7514 1.82026C14.2703 2.44941 15.5685 3.51484 16.4819 4.88183C17.3953 6.24881 17.8828 7.85595 17.8828 9.5C17.8828 11.7046 17.007 13.8189 15.4481 15.3778C13.8892 16.9367 11.7749 17.8125 9.57032 17.8125ZM9.57032 2.375C8.16112 2.375 6.78358 2.79288 5.61188 3.57578C4.44018 4.35869 3.52695 5.47146 2.98767 6.77338C2.4484 8.07531 2.3073 9.50791 2.58222 10.89C2.85714 12.2721 3.53573 13.5417 4.53218 14.5381C5.52863 15.5346 6.79818 16.2132 8.1803 16.4881C9.56241 16.763 10.995 16.6219 12.2969 16.0826C13.5989 15.5434 14.7116 14.6301 15.4945 13.4584C16.2774 12.2867 16.6953 10.9092 16.6953 9.5C16.6953 7.61034 15.9446 5.79806 14.6085 4.46187C13.2723 3.12567 11.46 2.375 9.57032 2.375Z" fill="white"/>
<path d="M12.2956 13.0625L8.97656 9.74344V4.15625H10.1641V9.25063L13.1328 12.2253L12.2956 13.0625Z" fill="white"/>
</svg>
