<svg width="180" height="52" viewBox="0 0 180 52" fill="none" xmlns="http://www.w3.org/2000/svg">
<g clip-path="url(#clip0_1533_932)">
<path d="M77.6766 33.9422C78.6754 33.9422 79.5698 33.7578 80.3602 33.3888C81.1506 33.0194 81.8189 32.4917 82.3655 31.8045C82.9114 31.118 83.3298 30.2848 83.6213 29.3053C83.9125 28.3261 84.0584 27.2271 84.0584 26.0067C84.0584 24.7867 83.9125 23.6869 83.6213 22.7077C83.3298 21.7287 82.9114 20.8929 82.3655 20.201C81.8189 19.5089 81.1506 18.9785 80.3602 18.6091C79.5698 18.2401 78.6754 18.0557 77.6766 18.0557C76.6781 18.0557 75.7834 18.2401 74.9926 18.6091C74.2022 18.9785 73.5339 19.5089 72.988 20.201C72.4417 20.8929 72.023 21.7287 71.7318 22.7077C71.4407 23.6869 71.2951 24.7867 71.2951 26.0067C71.2951 27.2271 71.4407 28.3261 71.7318 29.3053C72.023 30.2848 72.4417 31.118 72.988 31.8045C73.5339 32.4917 74.2022 33.0194 74.9926 33.3888C75.7834 33.7578 76.6781 33.9422 77.6766 33.9422ZM67.0822 24.4536C67.2381 23.0181 67.5943 21.7006 68.1509 20.5008C68.7071 19.3012 69.4434 18.2659 70.3588 17.3943C71.2738 16.5231 72.348 15.8462 73.581 15.3643C74.8132 14.8827 76.1789 14.6414 77.6766 14.6414C79.3095 14.6414 80.784 14.9259 82.1001 15.4951C83.4158 16.0638 84.5367 16.8561 85.4627 17.8712C86.3884 18.8861 87.1008 20.0885 87.6 21.4774C88.0993 22.8669 88.3492 24.3762 88.3492 26.0067C88.3492 27.637 88.0993 29.1468 87.6 30.5358C87.1008 31.9252 86.3884 33.1248 85.4627 34.1347C84.5367 35.1446 83.4158 35.934 82.1001 36.5034C80.784 37.072 79.3095 37.3564 77.6766 37.3564C76.1888 37.3564 74.829 37.118 73.5964 36.6418C72.3638 36.1647 71.2925 35.4956 70.3823 34.6343C69.4721 33.7731 68.7361 32.7479 68.174 31.5586C67.6123 30.3693 67.2539 29.0619 67.0977 27.637H63.0098V37.1263H59.5461C59.1325 37.1263 58.7969 36.7951 58.7969 36.3872V14.8875H62.2628C62.6752 14.8875 63.0098 15.2172 63.0098 15.6241V24.4536H67.0822Z" fill="white"/>
<path d="M105.153 22.0721V37.127H102.043C101.632 37.127 101.298 36.798 101.298 36.3929V30.1442H95.0572V37.127H91.9479C91.5362 37.127 91.2031 36.798 91.2031 36.3929V21.3471H94.3216C94.7278 21.3471 95.0572 21.672 95.0572 22.0721V27.3301H101.298V21.3471H104.417C104.823 21.3471 105.153 21.672 105.153 22.0721Z" fill="white"/>
<path d="M123.363 21.3465V37.1263H120.253C119.842 37.1263 119.508 36.7974 119.508 36.3923V27.9136C119.508 27.6779 119.522 27.4189 119.548 27.1372C119.573 26.8553 119.607 26.5708 119.649 26.2831C119.441 26.7551 119.212 27.1709 118.962 27.5293C118.941 27.5498 118.838 27.6904 118.65 27.9522C118.463 28.2138 118.221 28.5495 117.925 28.9593C117.628 29.3698 117.293 29.8337 116.919 30.3513C116.544 30.8694 116.164 31.3948 115.779 31.9274C114.874 33.1888 113.85 34.6139 112.706 36.2033C112.56 36.4183 112.37 36.6285 112.136 36.8336C111.902 37.039 111.634 37.1416 111.333 37.1416H108.977V21.3621H112.094C112.501 21.3621 112.83 21.6869 112.83 22.0875V30.5743C112.83 30.8099 112.817 31.069 112.791 31.3511C112.765 31.6334 112.731 31.9178 112.69 32.2048C112.919 31.7019 113.148 31.2872 113.377 30.9586C113.386 30.938 113.486 30.7996 113.673 30.5438C113.86 30.2876 114.102 29.9539 114.399 29.5442C114.695 29.1341 115.03 28.6701 115.405 28.1521C115.779 27.6347 116.159 27.1041 116.544 26.5606C117.449 25.299 118.479 23.874 119.633 22.2845C119.779 22.0592 119.971 21.8464 120.211 21.6466C120.45 21.4466 120.72 21.3465 121.022 21.3465H123.363Z" fill="white"/>
<path d="M136.729 22.3467C136.916 22.0495 137.171 21.8089 137.493 21.6246C137.816 21.4394 138.159 21.3471 138.523 21.3471H141.55L137.821 27.2065C137.561 27.6169 137.296 27.9479 137.025 28.1987C136.754 28.4499 136.427 28.6474 136.042 28.791C136.563 28.9446 136.989 29.1729 137.322 29.4751C137.654 29.778 137.956 30.1594 138.227 30.6212L141.971 37.127H139.304C138.627 37.127 138.102 37.0138 137.728 36.7881C137.353 36.5625 137.036 36.2396 136.776 35.819L134.42 31.4517C134.211 31.0724 133.944 30.7903 133.616 30.6056C133.288 30.4213 132.906 30.3289 132.469 30.3289H131.018V37.127H127.91C127.498 37.127 127.164 36.7976 127.164 36.3918V21.3471H130.276C130.685 21.3471 131.018 21.6748 131.018 22.0792V27.8526H132.266C132.703 27.8526 133.054 27.7738 133.319 27.6141C133.585 27.4553 133.811 27.2122 133.998 26.8838L136.729 22.3467Z" fill="white"/>
<path d="M150.598 34.4344C151.93 34.4344 152.915 33.9939 153.555 33.1121C154.195 32.2303 154.515 30.938 154.515 29.2367C154.515 27.5347 154.195 26.237 153.555 25.345C152.915 24.4536 151.93 24.0075 150.598 24.0075C149.246 24.0075 148.245 24.4559 147.594 25.3531C146.945 26.2502 146.62 27.5449 146.62 29.2367C146.62 30.9277 146.945 32.2171 147.594 33.1043C148.245 33.991 149.246 34.4344 150.598 34.4344ZM150.598 21.1005C151.784 21.1005 152.863 21.2909 153.836 21.6699C154.808 22.0488 155.64 22.5874 156.332 23.2842C157.024 23.9816 157.557 24.8326 157.932 25.8376C158.306 26.8421 158.494 27.965 158.494 29.2058C158.494 30.4563 158.306 31.5841 157.932 32.5891C157.557 33.5936 157.024 34.4499 156.332 35.1576C155.64 35.8646 154.808 36.4081 153.836 36.7875C152.863 37.1672 151.784 37.3564 150.598 37.3564C149.402 37.3564 148.315 37.1672 147.337 36.7875C146.359 36.4081 145.525 35.8646 144.833 35.1576C144.141 34.4499 143.605 33.5936 143.226 32.5891C142.846 31.5841 142.656 30.4563 142.656 29.2058C142.656 27.965 142.846 26.8421 143.226 25.8376C143.605 24.8326 144.141 23.9816 144.833 23.2842C145.525 22.5874 146.359 22.0488 147.337 21.6699C148.315 21.2909 149.402 21.1005 150.598 21.1005Z" fill="white"/>
<path d="M180.005 21.3163V37.127H177.264C176.857 37.127 176.526 36.8006 176.526 36.3987V28.3296C176.526 27.9705 176.544 27.5657 176.581 27.1145C176.617 26.6638 176.676 26.2433 176.76 25.8534L172.048 34.3738C171.819 34.8143 171.455 35.0351 170.955 35.0351H170.55C170.051 35.0351 169.686 34.8143 169.458 34.3738L164.683 25.8074C164.756 26.1973 164.816 26.6226 164.862 27.0838C164.909 27.5455 164.933 27.9602 164.933 28.3296V37.127H162.192C161.784 37.127 161.453 36.8006 161.453 36.3987V21.3163H164.636C164.907 21.3163 165.175 21.3729 165.44 21.4854C165.705 21.5987 165.926 21.8241 166.103 22.1624L169.879 28.8063C170.045 29.1138 170.201 29.4393 170.347 29.7833C170.492 30.1265 170.628 30.4725 170.752 30.8207C170.877 30.4725 171.01 30.1241 171.15 29.7752C171.291 29.427 171.444 29.1039 171.611 28.8063L175.355 22.1624C175.543 21.8138 175.766 21.5856 176.027 21.4781C176.286 21.3705 176.552 21.3163 176.822 21.3163H180.005Z" fill="white"/>
<path d="M8.6805 -0.00184631H0V26.2977C0 35.69 8.35553 43.3037 18.6629 43.3037V42.4656V9.09408C18.6629 4.07054 14.1935 -0.00184631 8.6805 -0.00184631ZM8.6805 3.49586C12.2282 3.49586 15.1144 6.00727 15.1144 9.09408V39.4303C8.48677 37.9998 3.54851 32.6543 3.54851 26.2977V3.49586H8.6805Z" fill="white"/>
<path d="M28.1408 34.2219V8.97816C28.2215 4.00535 32.3338 -0.00181198 37.3981 -0.00181198H45.4515V34.9339C45.4515 44.3582 37.7014 51.9979 28.1408 52C23.172 51.9979 19.0951 48.2435 18.6641 43.4563C23.853 43.4352 28.0601 39.3226 28.1408 34.2219Z" fill="white"/>
</g>
<defs>
<clipPath id="clip0_1533_932">
<rect width="180" height="52" fill="white"/>
</clipPath>
</defs>
</svg>
