<svg width="59" height="59" viewBox="0 0 59 59" fill="none" xmlns="http://www.w3.org/2000/svg">
<path d="M40.7443 54.5624C37.3127 56.1031 33.5075 56.959 29.5 56.959C14.3104 56.959 2 44.6456 2 29.4609C2 14.2724 14.3104 1.95898 29.5 1.95898C44.6896 1.95898 57 14.2724 57 29.4609C57 33.9661 55.9184 38.2184 53.9963 41.9689M48.9967 48.8551C48.7866 49.0652 48.5765 49.2714 48.3625 49.4737C47.7633 50.0378 47.1369 50.5747 46.491 51.0843M51.2105 29.4609C51.2105 41.4476 41.4914 51.166 29.5 51.166C17.5125 51.166 7.79336 41.4476 7.79336 29.4609C7.79336 17.4704 17.5125 7.75194 29.5 7.75194C41.4914 7.75194 51.2105 17.4704 51.2105 29.4609ZM32.5115 30.8576C32.5115 32.5189 31.1614 33.865 29.5 33.865C27.8386 33.865 26.4924 32.5189 26.4924 30.8576L25.4302 17.4393C25.4302 15.778 27.8386 15.494 29.5 15.494C31.1614 15.494 33.5697 15.778 33.5697 17.4393L32.5115 30.8576ZM32.5115 40.8873C32.5115 42.2879 31.1614 43.4239 29.5 43.4239C27.8386 43.4239 26.4924 42.2879 26.4924 40.8873V40.3038C26.4924 38.9032 27.8386 37.7671 29.5 37.7671C31.1614 37.7671 32.5115 38.9032 32.5115 40.3038V40.8873Z" stroke="#102B4E" stroke-width="2.349" stroke-miterlimit="10" stroke-linecap="round" stroke-linejoin="round"/>
</svg>
