<svg width="59" height="58" viewBox="0 0 59 58" fill="none" xmlns="http://www.w3.org/2000/svg">
<path d="M21.4961 21.177L21.6773 22.3374C22.1206 22.2682 22.4858 21.9524 22.6183 21.5237C22.7507 21.0949 22.6273 20.6282 22.3003 20.321L21.4961 21.177ZM14.1289 22.3274L13.3247 23.1834C13.5887 23.4313 13.9523 23.5437 14.3101 23.4878L14.1289 22.3274ZM2 10.9324L1.81879 9.77195C1.37545 9.84118 1.01029 10.157 0.877837 10.5857C0.745381 11.0144 0.868774 11.4811 1.19581 11.7884L2 10.9324ZM9.36719 9.78197L10.1714 8.92598C9.90743 8.67799 9.54382 8.56565 9.18598 8.62153L9.36719 9.78197ZM22.4727 13.6737L23.6386 13.8153C23.6823 13.4555 23.5574 13.0957 23.3002 12.8404L22.4727 13.6737ZM21.5742 21.0754L20.7466 21.9088C21.0649 22.2249 21.5355 22.3321 21.9593 22.185C22.3831 22.0379 22.6861 21.6623 22.7402 21.2169L21.5742 21.0754ZM9.77734 9.36066L8.6114 9.21913C8.56773 9.5789 8.6926 9.93868 8.94975 10.194L9.77734 9.36066ZM10.6758 1.95898L11.5034 1.12559C11.1851 0.809497 10.7145 0.702326 10.2907 0.849408C9.8669 0.996489 9.56389 1.37213 9.50984 1.81746L10.6758 1.95898ZM22.8263 20.7639C22.3589 20.3141 21.6154 20.3282 21.1656 20.7955C20.7157 21.2628 20.7299 22.0064 21.1972 22.4562L22.8263 20.7639ZM29.0644 30.0295C29.5317 30.4793 30.2752 30.4652 30.7251 29.9979C31.1749 29.5306 31.1608 28.787 30.6934 28.3372L29.0644 30.0295ZM30.4219 20.7101C35.3151 20.7101 39.2864 24.6834 39.2864 29.5851H41.6354C41.6354 23.3883 36.6146 18.3611 30.4219 18.3611V20.7101ZM39.2864 29.5851C39.2864 34.4869 35.3151 38.4602 30.4219 38.4602V40.8092C36.6146 40.8092 41.6354 35.782 41.6354 29.5851H39.2864ZM30.4219 38.4602C25.5287 38.4602 21.5573 34.4869 21.5573 29.5851H19.2083C19.2083 35.782 24.2291 40.8092 30.4219 40.8092V38.4602ZM21.5573 29.5851C21.5573 29.1189 21.595 28.6641 21.6647 28.2119L19.3431 27.8542C19.2565 28.416 19.2083 28.9906 19.2083 29.5851H21.5573ZM25.5661 11.6137C27.1148 11.1924 28.7416 10.9685 30.4219 10.9685V8.61955C28.5319 8.61955 26.6977 8.87147 24.9495 9.34709L25.5661 11.6137ZM30.4219 10.9685C40.69 10.9685 49.0169 19.3017 49.0169 29.5851H51.3659C51.3659 18.0067 41.9897 8.61955 30.4219 8.61955V10.9685ZM49.0169 29.5851C49.0169 39.8645 40.6902 48.1978 30.4219 48.1978V50.5468C41.9895 50.5468 51.3659 41.1598 51.3659 29.5851H49.0169ZM30.4219 48.1978C20.1539 48.1978 11.8307 39.8648 11.8307 29.5851H9.48175C9.48175 41.1595 18.8539 50.5468 30.4219 50.5468V48.1978ZM11.8307 29.5851C11.8307 28.1737 11.9854 26.8018 12.2825 25.4835L9.99096 24.967C9.65527 26.4565 9.48175 28.0016 9.48175 29.5851H11.8307ZM56.3724 29.5851C56.3724 43.936 44.7564 55.5644 30.4219 55.5644V57.9134C46.0561 57.9134 58.7214 45.2309 58.7214 29.5851H56.3724ZM30.4219 55.5644C16.0912 55.5644 4.47137 43.9359 4.47137 29.5851H2.12238C2.12238 45.231 14.7916 57.9134 30.4219 57.9134V55.5644ZM4.47137 29.5851C4.47137 15.2343 16.0912 3.60588 30.4219 3.60588V1.25688C14.7916 1.25688 2.12238 13.9393 2.12238 29.5851H4.47137ZM30.4219 3.60588C44.7564 3.60588 56.3724 15.2342 56.3724 29.5851H58.7214C58.7214 13.9394 46.0561 1.25688 30.4219 1.25688V3.60588ZM21.3149 20.0165L13.9477 21.1669L14.3101 23.4878L21.6773 22.3374L21.3149 20.0165ZM14.9331 21.4714L2.80419 10.0764L1.19581 11.7884L13.3247 23.1834L14.9331 21.4714ZM2.18121 12.0928L9.5484 10.9424L9.18598 8.62153L1.81879 9.77195L2.18121 12.0928ZM8.56299 10.638L20.6919 22.0329L22.3003 20.321L10.1714 8.92598L8.56299 10.638ZM21.3067 13.5322L20.4083 20.9339L22.7402 21.2169L23.6386 13.8153L21.3067 13.5322ZM22.4018 20.242L10.6049 8.52726L8.94975 10.194L20.7466 21.9088L22.4018 20.242ZM10.9433 9.50218L11.8417 2.10051L9.50984 1.81746L8.6114 9.21913L10.9433 9.50218ZM9.84819 2.79238L21.6451 14.5071L23.3002 12.8404L11.5034 1.12559L9.84819 2.79238ZM21.1972 22.4562L29.0644 30.0295L30.6934 28.3372L22.8263 20.7639L21.1972 22.4562Z" fill="#102B4E"/>
</svg>
