<svg width="29" height="18" viewBox="0 0 29 18" fill="none" xmlns="http://www.w3.org/2000/svg">
<path fill-rule="evenodd" clip-rule="evenodd" d="M27.4707 1.73438C27.6793 1.07344 27.4707 0.592969 26.5479 0.592969H23.4793C22.7053 0.592969 22.3479 1.01367 22.1393 1.46367C22.1393 1.46367 20.5607 5.30742 18.3564 7.79941C17.6416 8.52012 17.3141 8.76035 16.9268 8.76035C16.7182 8.76035 16.4498 8.52012 16.4498 7.85977V1.70332C16.4498 0.922852 16.2119 0.5625 15.5562 0.5625H10.7305C10.2535 0.5625 9.95586 0.922852 9.95586 1.2832C9.95586 2.03379 11.058 2.21426 11.177 4.31602V8.88281C11.177 9.87363 11.0012 10.0547 10.6109 10.0547C9.56855 10.0547 7.03672 6.18105 5.51797 1.76719C5.22266 0.892969 4.92266 0.5625 4.14805 0.5625H1.0502C0.156641 0.5625 0.0078125 0.982617 0.0078125 1.4332C0.0078125 2.24414 1.0502 6.32754 4.86289 11.7322C7.39473 15.4236 10.9988 17.4076 14.2455 17.4076C16.2119 17.4076 16.4498 16.957 16.4498 16.2064V13.4139C16.4498 12.5133 16.6285 12.3633 17.2543 12.3633C17.7008 12.3633 18.5053 12.6029 20.3223 14.3748C22.407 16.4766 22.7645 17.4375 23.9264 17.4375H26.9943C27.8879 17.4375 28.3051 16.9869 28.0666 16.1162C27.7988 15.2455 26.7857 13.9846 25.475 12.4834C24.7602 11.6432 23.6879 10.7121 23.3604 10.2615C22.9139 9.66094 23.0328 9.4207 23.3604 8.88047C23.3305 8.88047 27.084 3.53555 27.4707 1.73203" fill="white"/>
</svg>
