<svg width="46" height="46" viewBox="0 0 46 46" fill="none" xmlns="http://www.w3.org/2000/svg">
<path d="M11.2695 5.59375C14.625 3.32421 18.668 2 23.0234 2C34.6367 2 44.0508 11.4141 44.0508 23.0273C44.0508 34.6406 34.6367 44.0547 23.0234 44.0547C11.4102 44.0547 2 34.6406 2 23.0273C2 20.4766 2.45312 18.0273 3.28906 15.7656M6.33203 10.2422C6.76562 9.67969 7.22266 9.14062 7.70703 8.625L6.33203 10.2422ZM22.2578 22.7266L13.9297 15.3242L22.2578 22.7266ZM23.25 23.3477L33.7891 12.0625L23.25 23.3477ZM23.0234 5.90625V8.55469V5.90625ZM23.0234 37.5039V40.1484V37.5039ZM40.1484 23.0273H37.5H40.1484ZM8.55078 23.0273H5.90234H8.55078Z" fill="#F8F8F8"/>
<path d="M11.2695 5.59375C14.625 3.32422 18.668 2 23.0234 2C34.6367 2 44.0508 11.4141 44.0508 23.0273C44.0508 34.6406 34.6367 44.0547 23.0234 44.0547C11.4102 44.0547 2 34.6406 2 23.0273C2 20.4766 2.45312 18.0273 3.28906 15.7656M6.33203 10.2422C6.76562 9.67969 7.22266 9.14062 7.70703 8.625M22.2578 22.7266L13.9297 15.3242M23.25 23.3477L33.7891 12.0625M23.0234 5.90625V8.55469M23.0234 37.5039V40.1484M40.1484 23.0273H37.5M8.55078 23.0273H5.90234" stroke="#102B4E" stroke-width="2.349" stroke-miterlimit="10" stroke-linecap="round" stroke-linejoin="round"/>
</svg>
