<svg width="47" height="47" viewBox="0 0 47 47" fill="none" xmlns="http://www.w3.org/2000/svg">
<path d="M45.5898 23.7969C45.5898 35.832 35.832 45.5898 23.793 45.5898C11.7578 45.5898 2 35.832 2 23.7969C2 11.7578 11.7578 2 23.793 2C35.832 2 45.5898 11.7578 45.5898 23.7969ZM26.8164 25.1992C26.8164 26.8672 25.4609 28.2188 23.793 28.2188C22.125 28.2188 20.7734 26.8672 20.7734 25.1992L19.707 11.7266C19.707 10.0586 22.125 9.77344 23.793 9.77344C25.4609 9.77344 27.8789 10.0586 27.8789 11.7266L26.8164 25.1992ZM26.8164 35.2695C26.8164 36.6758 25.4609 37.8164 23.793 37.8164C22.125 37.8164 20.7734 36.6758 20.7734 35.2695V34.6836C20.7734 33.2773 22.125 32.1367 23.793 32.1367C25.4609 32.1367 26.8164 33.2773 26.8164 34.6836V35.2695Z" stroke="white" stroke-width="2.349" stroke-miterlimit="10" stroke-linecap="round" stroke-linejoin="round"/>
</svg>
