<svg width="58" height="42" viewBox="0 0 58 42" fill="none" xmlns="http://www.w3.org/2000/svg">
<path d="M54.2981 10.2624C58.2949 17.131 56.0105 25.8612 49.201 29.7648C48.971 29.8953 48.7411 30.0196 48.5049 30.1377C48.3992 30.1906 48.2904 30.2403 48.1847 30.29C48.0666 30.346 47.9516 30.4019 47.8335 30.4516C47.6502 30.5324 47.4668 30.607 47.2834 30.6816C47.2617 30.6878 47.243 30.6972 47.2213 30.7065C39.6503 33.659 30.628 30.2714 21.3166 34.0071C14.3921 36.7887 12.4807 39.5362 11.9648 41C14.2367 12.1987 34.8175 4.96341 34.8175 4.96341C41.9409 1.6348 50.8855 4.39155 54.2981 10.2624ZM8.32849 1.00389C12.1171 1.14996 15.051 4.28898 14.8769 8.01541C14.8707 8.14283 14.8614 8.26715 14.8489 8.39147C14.8427 8.44741 14.8365 8.50335 14.8303 8.5593C14.821 8.61835 14.8148 8.68051 14.8054 8.74267C14.7899 8.8359 14.7744 8.92603 14.7557 9.01927C14.7526 9.0317 14.7526 9.04103 14.7495 9.05035C14.0036 12.842 10.3269 15.6019 9.45356 20.2918C8.80089 23.7789 9.41627 25.2458 9.87624 25.8239C-1.14452 17.5785 1.2113 7.47463 1.2113 7.47463C1.69303 3.76685 5.09001 0.879571 8.32849 1.00389Z" stroke="white" stroke-width="1.86894" stroke-miterlimit="10" stroke-linecap="round" stroke-linejoin="round"/>
</svg>
