<svg width="44" height="42" viewBox="0 0 44 42" fill="none" xmlns="http://www.w3.org/2000/svg">
<path d="M3.19531 29.7685H19.1178V31.8301H3.19531" fill="#F8F8F8"/>
<path d="M3.19531 29.7685H19.1178V31.8301H3.19531" stroke="#102B4E" stroke-width="1.59555" stroke-miterlimit="10" stroke-linecap="round" stroke-linejoin="round"/>
<path d="M36.0463 30.2833V19.564H34.0855C34.0855 19.564 34.0643 19.686 34.051 19.9036C33.9767 20.1 33.9131 20.4184 33.6371 20.681C33.3851 20.949 32.9897 21.1719 32.5227 21.1931C32.4803 21.2064 32.3927 21.209 32.2919 21.2064H27.4045C27.2294 21.2064 27.0278 21.2117 26.9508 21.1905C26.7385 21.1852 26.5475 21.1162 26.3777 21.0498C26.0275 20.9092 25.847 20.6333 25.7011 20.4794C25.6135 20.2857 25.5339 20.1875 25.5472 20.1822C25.5472 20.1822 25.5127 20.0628 25.4543 19.8559C25.449 19.8028 25.4464 19.7444 25.4384 19.6781C25.4305 19.6197 25.4199 19.5481 25.4225 19.4128V5.06105C25.4199 4.88328 25.4305 4.74 25.4172 4.51978C25.3907 4.27833 25.3854 4.02627 25.3243 3.77951C25.0988 2.78718 24.3824 1.85587 23.4087 1.37827C23.1752 1.235 22.9019 1.18724 22.6472 1.10233C22.3871 1.036 22.1165 1.03069 21.8512 1.00151C21.4611 1.00151 21.0791 1.00151 20.7076 1.00151H18.6911C18.0808 1.00947 17.6749 0.974972 17.1256 1.04661C16.6587 1.10498 16.4092 1.2403 16.4066 1.22438C16.4066 1.22438 16.3429 1.24826 16.2235 1.28806C16.1121 1.34909 15.9476 1.43665 15.738 1.54808C15.531 1.66218 15.3187 1.86117 15.072 2.07609C14.8571 2.32285 14.6077 2.6041 14.4352 2.97291C14.3291 3.14802 14.2627 3.34968 14.2017 3.55929C14.1699 3.66542 14.138 3.7742 14.1062 3.88034C14.0929 3.99177 14.0823 4.10587 14.0664 4.22261C14.0584 4.3367 14.0478 4.45345 14.0372 4.57285L14.0345 4.84348V13.9947C14.0345 13.9947 14.0319 14.7695 14.0266 15.9316C14.0292 16.3031 13.8727 16.7382 13.5331 17.0593C13.358 17.2079 13.1616 17.3538 12.9308 17.4228C12.8167 17.4599 12.6999 17.505 12.5752 17.4997L12.3922 17.5236H4.63921C4.33939 17.5554 3.93874 17.5448 3.56197 17.6908C2.78721 17.9136 1.95407 18.4894 1.46321 19.3836L1.28544 19.7232L1.16339 20.0947C1.07318 20.3414 1.04399 20.6041 1.02276 20.8694C0.988271 21.1666 1.00419 21.3152 1.00154 21.5221V41H2.96233V21.5221C2.96233 21.3364 2.95437 21.0949 2.97825 21.0074C2.98886 20.888 2.99151 20.7659 3.04192 20.6572L3.08968 20.4847L3.17724 20.3361C3.39747 19.9275 3.77954 19.6648 4.12978 19.5666C4.3049 19.487 4.46409 19.5162 4.63921 19.4844H12.3922L12.7928 19.4472C13.0634 19.4366 13.3208 19.357 13.5755 19.2721C14.0823 19.1076 14.5254 18.8078 14.8969 18.4655C15.6371 17.7651 15.9821 16.7966 15.9847 15.9926C15.99 14.7934 15.9953 13.9947 15.9953 13.9947V4.58877L16.0166 4.42957L16.0272 4.27037L16.0776 4.12709C16.1041 4.03423 16.1253 3.93871 16.1811 3.86176C16.2527 3.69195 16.3774 3.57255 16.4676 3.4505C16.5897 3.36294 16.6746 3.25681 16.7754 3.2117C16.8709 3.16394 16.9426 3.12149 16.993 3.08965C17.0487 3.07639 17.0779 3.06843 17.0779 3.06843C17.0805 3.07904 17.1893 3.0074 17.4042 2.98883C17.5396 2.95168 18.118 2.96229 18.6911 2.95964H20.7076C21.0738 2.95964 21.4505 2.96229 21.8352 2.96229C22.0794 2.98352 22.3235 3.01801 22.5437 3.13741C22.9841 3.35498 23.3131 3.77951 23.414 4.22792C23.4458 4.3367 23.4352 4.45345 23.4591 4.56223C23.4697 4.6949 23.4617 4.90186 23.4644 5.06105V19.4128C23.4591 19.5162 23.4697 19.6648 23.4856 19.8134C23.4989 19.9567 23.5148 20.0867 23.5254 20.2034C23.5652 20.4369 23.6368 20.612 23.6713 20.7341C23.7085 20.8535 23.7324 20.9198 23.7324 20.9198C23.7324 20.9198 23.7509 20.9835 23.8146 21.0949C23.8756 21.2064 23.9632 21.3682 24.0773 21.5778C24.3638 21.9413 24.7963 22.4985 25.5552 22.8275C25.924 22.9867 26.3538 23.1221 26.8181 23.1433C27.0755 23.1725 27.2214 23.1645 27.4045 23.1645H32.2919C32.3795 23.1672 32.4776 23.1672 32.6183 23.1513C33.1542 23.13 33.653 22.9788 34.0855 22.7559V30.2833" fill="#F8F8F8"/>
<path d="M36.0463 30.2833V19.564H34.0855C34.0855 19.564 34.0643 19.686 34.051 19.9036C33.9767 20.1 33.9131 20.4184 33.6371 20.681C33.3851 20.949 32.9897 21.1719 32.5227 21.1931C32.4803 21.2064 32.3927 21.209 32.2919 21.2064H27.4045C27.2294 21.2064 27.0278 21.2117 26.9508 21.1905C26.7385 21.1852 26.5475 21.1162 26.3777 21.0498C26.0275 20.9092 25.847 20.6333 25.7011 20.4794C25.6135 20.2857 25.5339 20.1875 25.5472 20.1822C25.5472 20.1822 25.5127 20.0628 25.4543 19.8559C25.449 19.8028 25.4464 19.7444 25.4384 19.6781C25.4305 19.6197 25.4199 19.5481 25.4225 19.4128V5.06105C25.4199 4.88328 25.4305 4.74 25.4172 4.51978C25.3907 4.27833 25.3854 4.02627 25.3243 3.77951C25.0988 2.78718 24.3824 1.85587 23.4087 1.37827C23.1752 1.235 22.9019 1.18724 22.6472 1.10233C22.3871 1.036 22.1165 1.03069 21.8512 1.00151C21.4611 1.00151 21.0791 1.00151 20.7076 1.00151H18.6911C18.0808 1.00947 17.6749 0.974972 17.1256 1.04661C16.6587 1.10498 16.4092 1.2403 16.4066 1.22438C16.4066 1.22438 16.3429 1.24826 16.2235 1.28806C16.1121 1.34909 15.9476 1.43665 15.738 1.54808C15.531 1.66218 15.3187 1.86117 15.072 2.07609C14.8571 2.32285 14.6077 2.6041 14.4352 2.97291C14.3291 3.14802 14.2627 3.34968 14.2017 3.55929C14.1699 3.66542 14.138 3.7742 14.1062 3.88034C14.0929 3.99177 14.0823 4.10587 14.0664 4.22261C14.0584 4.3367 14.0478 4.45345 14.0372 4.57285L14.0345 4.84348V13.9947C14.0345 13.9947 14.0319 14.7695 14.0266 15.9316C14.0292 16.3031 13.8727 16.7382 13.5331 17.0593C13.358 17.2079 13.1616 17.3538 12.9308 17.4228C12.8167 17.4599 12.6999 17.505 12.5752 17.4997L12.3922 17.5236H4.63921C4.33939 17.5554 3.93874 17.5448 3.56197 17.6908C2.78721 17.9136 1.95407 18.4894 1.46321 19.3836L1.28544 19.7232L1.16339 20.0947C1.07318 20.3414 1.04399 20.6041 1.02276 20.8694C0.988271 21.1666 1.00419 21.3152 1.00154 21.5221V41H2.96233V21.5221C2.96233 21.3364 2.95437 21.0949 2.97825 21.0074C2.98886 20.888 2.99151 20.7659 3.04192 20.6572L3.08968 20.4847L3.17724 20.3361C3.39747 19.9275 3.77954 19.6648 4.12978 19.5666C4.3049 19.487 4.46409 19.5162 4.63921 19.4844H12.3922L12.7928 19.4472C13.0634 19.4366 13.3208 19.357 13.5755 19.2721C14.0823 19.1076 14.5254 18.8078 14.8969 18.4655C15.6371 17.7651 15.9821 16.7966 15.9847 15.9926C15.99 14.7934 15.9953 13.9947 15.9953 13.9947V4.58877L16.0166 4.42957L16.0272 4.27037L16.0776 4.12709C16.1041 4.03423 16.1253 3.93871 16.1811 3.86176C16.2527 3.69195 16.3774 3.57255 16.4676 3.4505C16.5897 3.36294 16.6746 3.25681 16.7754 3.2117C16.8709 3.16394 16.9426 3.12149 16.993 3.08965C17.0487 3.07639 17.0779 3.06843 17.0779 3.06843C17.0805 3.07904 17.1893 3.0074 17.4042 2.98883C17.5396 2.95168 18.118 2.96229 18.6911 2.95964H20.7076C21.0738 2.95964 21.4505 2.96229 21.8352 2.96229C22.0794 2.98352 22.3235 3.01801 22.5437 3.13741C22.9841 3.35498 23.3131 3.77951 23.414 4.22792C23.4458 4.3367 23.4352 4.45345 23.4591 4.56223C23.4697 4.6949 23.4617 4.90186 23.4644 5.06105V19.4128C23.4591 19.5162 23.4697 19.6648 23.4856 19.8134C23.4989 19.9567 23.5148 20.0867 23.5254 20.2034C23.5652 20.4369 23.6368 20.612 23.6713 20.7341C23.7085 20.8535 23.7324 20.9198 23.7324 20.9198C23.7324 20.9198 23.7509 20.9835 23.8146 21.0949C23.8756 21.2064 23.9632 21.3682 24.0773 21.5778C24.3638 21.9413 24.7963 22.4985 25.5552 22.8275C25.924 22.9867 26.3538 23.1221 26.8181 23.1433C27.0755 23.1725 27.2214 23.1645 27.4045 23.1645H32.2919C32.3795 23.1672 32.4776 23.1672 32.6183 23.1513C33.1542 23.13 33.653 22.9788 34.0855 22.7559V30.2833" stroke="#102B4E" stroke-width="1.59555" stroke-miterlimit="10" stroke-linecap="round" stroke-linejoin="round"/>
<path d="M20.8242 37.036V41H21.7104L22.9309 37.036H20.8242Z" fill="#F8F8F8" stroke="#102B4E" stroke-width="1.59555" stroke-miterlimit="10" stroke-linecap="round" stroke-linejoin="round"/>
<path d="M20.8242 37.036V41H22.6736L23.4112 37.036H20.8242Z" fill="#F8F8F8" stroke="#102B4E" stroke-width="1.59555" stroke-miterlimit="10" stroke-linecap="round" stroke-linejoin="round"/>
<path d="M28.0091 37.036V41H27.1229L25.9023 37.036H28.0091Z" fill="#F8F8F8" stroke="#102B4E" stroke-width="1.59555" stroke-miterlimit="10" stroke-linecap="round" stroke-linejoin="round"/>
<path d="M28.0127 37.036V41H26.1634L25.4258 37.036H28.0127Z" fill="#F8F8F8" stroke="#102B4E" stroke-width="1.59555" stroke-miterlimit="10" stroke-linecap="round" stroke-linejoin="round"/>
<path d="M26.1328 10.2112H22.7074C20.7148 10.2112 19.1016 12.3365 19.1016 14.958V32.9261C19.1016 35.5476 20.7148 37.6729 22.7074 37.6729H26.1328C28.1228 37.6729 29.7386 35.5476 29.7386 32.9261V14.958C29.7386 12.3365 28.1228 10.2112 26.1328 10.2112Z" fill="#F8F8F8" stroke="#102B4E" stroke-width="1.59555" stroke-miterlimit="10" stroke-linecap="round" stroke-linejoin="round"/>
<path d="M26.1328 10.2112H22.7074C20.7148 10.2112 19.1016 12.3365 19.1016 14.958V32.9261C19.1016 35.5476 20.7148 37.6729 22.7074 37.6729H26.1328C28.1228 37.6729 29.7386 35.5476 29.7386 32.9261V14.958C29.7386 12.3365 28.1228 10.2112 26.1328 10.2112Z" stroke="#102B4E" stroke-width="1.59555" stroke-miterlimit="10" stroke-linecap="round" stroke-linejoin="round"/>
<path d="M33.8984 37.036V41H34.7846L36.0052 37.036H33.8984Z" fill="#F8F8F8" stroke="#102B4E" stroke-width="1.59555" stroke-miterlimit="10" stroke-linecap="round" stroke-linejoin="round"/>
<path d="M33.8984 37.036V41H35.7478L36.4854 37.036H33.8984Z" fill="#F8F8F8" stroke="#102B4E" stroke-width="1.59555" stroke-miterlimit="10" stroke-linecap="round" stroke-linejoin="round"/>
<path d="M41.0912 37.036V41H40.205L38.9845 37.036H41.0912Z" fill="#F8F8F8" stroke="#102B4E" stroke-width="1.59555" stroke-miterlimit="10" stroke-linecap="round" stroke-linejoin="round"/>
<path d="M41.0935 37.036V41H39.2442L38.5039 37.036H41.0935Z" fill="#F8F8F8" stroke="#102B4E" stroke-width="1.59555" stroke-miterlimit="10" stroke-linecap="round" stroke-linejoin="round"/>
<path d="M39.207 10.2112H35.779C33.789 10.2112 32.1758 12.3365 32.1758 14.958V32.9261C32.1758 35.5476 33.789 37.6729 35.779 37.6729H39.207C41.1997 37.6729 42.8129 35.5476 42.8129 32.9261V14.958C42.8129 12.3365 41.1997 10.2112 39.207 10.2112Z" fill="#F8F8F8" stroke="#102B4E" stroke-width="1.59555" stroke-miterlimit="10" stroke-linecap="round" stroke-linejoin="round"/>
<path d="M39.207 10.2112H35.779C33.789 10.2112 32.1758 12.3365 32.1758 14.958V32.9261C32.1758 35.5476 33.789 37.6729 35.779 37.6729H39.207C41.1997 37.6729 42.8129 35.5476 42.8129 32.9261V14.958C42.8129 12.3365 41.1997 10.2112 39.207 10.2112Z" stroke="#102B4E" stroke-width="1.59555" stroke-miterlimit="10" stroke-linecap="round" stroke-linejoin="round"/>
</svg>
