<svg width="28" height="28" viewBox="0 0 28 28" fill="none" xmlns="http://www.w3.org/2000/svg">
<circle cx="14" cy="14" r="14" fill="#9EB4AF"/>
<circle cx="14.0026" cy="13.9997" r="11.6667" fill="white"/>
<mask id="mask0_1447_20302" style="mask-type:alpha" maskUnits="userSpaceOnUse" x="0" y="0" width="28" height="28">
<circle cx="14" cy="14" r="14" fill="#9EB4AF"/>
</mask>
<g mask="url(#mask0_1447_20302)">
<path d="M2.41523 19.141C1.35694 19.4071 2.10818 17.7111 1.33333 18.4162L-1 15.6162V14.8406C-0.11457 13.9551 1.83338 12.2854 2.54172 12.6902C3.25006 13.0951 3.93311 12.6903 4.18609 12.4373L5.07152 11.5518L5.57748 11.0459C5.57748 11.0459 6.08339 10.6046 6.46291 10.4134C7.05152 10.117 7.44603 9.94457 8.1 10.0162C8.63408 10.0746 9.01136 10.1489 9.37218 10.5398C9.83918 11.0459 9.73333 11.6497 9.37218 12.1842C9.02564 12.6971 8.61324 12.8167 8.61324 13.5756C8.61324 14.3345 8.99271 14.3345 9.1192 14.967C9.22039 15.4729 9.18477 16.1253 8.73973 16.6114C8.19672 17.2045 7.51964 16.966 6.71589 16.9908C6.12135 17.0092 5.7871 16.7819 5.19801 16.8643C3.80743 17.0588 3.77697 18.7987 2.41523 19.141Z" fill="#9EB4AF"/>
</g>
<path d="M17.051 24.649C17.1522 25.3573 17.6834 26.2934 17.9364 26.6728L18.3159 27.1788L19.7073 25.9139L22.743 22.7516L25.1463 18.8304L25.7788 15.1622L26 13L25.5 11.9997C25.5 11.9997 24.6404 13.1384 24.6404 13.5179C24.6404 13.8973 26.1312 14.1976 22.996 15.1622C21.8983 15.5 20.7715 16.6184 20.0645 18.0666C19.4907 19.2422 20.1442 20.2489 19.4543 21.3602C18.9004 22.2525 17.735 22.2617 17.2632 23.2C16.9888 23.7459 16.9498 23.9406 17.051 24.649Z" fill="#9EB4AF"/>
<path d="M9.27682 3.31561C8.87205 3.11323 7.59029 2.97831 7 2.93614L10.4152 2.30369C14.8424 1.29772 21.7163 3.07144 19.7755 3.56859C16.8 4.33077 15.9808 6.22488 14.8424 6.73084C13.9317 7.13561 12.945 6.64652 12.5656 6.35138C11.638 5.42378 9.68159 3.518 9.27682 3.31561Z" fill="#9EB4AF"/>
<path d="M16.924 16.954C17.012 16.954 17.09 16.988 17.158 17.056L17.794 17.746C17.442 18.182 17.008 18.516 16.492 18.748C15.98 18.98 15.364 19.096 14.644 19.096C14 19.096 13.42 18.986 12.904 18.766C12.392 18.546 11.954 18.24 11.59 17.848C11.226 17.456 10.946 16.988 10.75 16.444C10.558 15.9 10.462 15.306 10.462 14.662C10.462 14.01 10.566 13.414 10.774 12.874C10.982 12.33 11.274 11.862 11.65 11.47C12.03 11.078 12.482 10.774 13.006 10.558C13.53 10.338 14.11 10.228 14.746 10.228C15.378 10.228 15.938 10.332 16.426 10.54C16.918 10.748 17.336 11.02 17.68 11.356L17.14 12.106C17.108 12.154 17.066 12.196 17.014 12.232C16.966 12.268 16.898 12.286 16.81 12.286C16.75 12.286 16.688 12.27 16.624 12.238C16.56 12.202 16.49 12.16 16.414 12.112C16.338 12.06 16.25 12.004 16.15 11.944C16.05 11.884 15.934 11.83 15.802 11.782C15.67 11.73 15.516 11.688 15.34 11.656C15.168 11.62 14.968 11.602 14.74 11.602C14.352 11.602 13.996 11.672 13.672 11.812C13.352 11.948 13.076 12.148 12.844 12.412C12.612 12.672 12.432 12.992 12.304 13.372C12.176 13.748 12.112 14.178 12.112 14.662C12.112 15.15 12.18 15.584 12.316 15.964C12.456 16.344 12.644 16.664 12.88 16.924C13.116 17.184 13.394 17.384 13.714 17.524C14.034 17.66 14.378 17.728 14.746 17.728C14.966 17.728 15.164 17.716 15.34 17.692C15.52 17.668 15.684 17.63 15.832 17.578C15.984 17.526 16.126 17.46 16.258 17.38C16.394 17.296 16.528 17.194 16.66 17.074C16.7 17.038 16.742 17.01 16.786 16.99C16.83 16.966 16.876 16.954 16.924 16.954Z" fill="#9EB4AF"/>
</svg>
