<svg width="12" height="9" viewBox="0 0 12 9" fill="none" xmlns="http://www.w3.org/2000/svg">
<path d="M4.00069 6.80009L1.66736 4.46675C1.60634 4.40499 1.53367 4.35596 1.45357 4.32249C1.37346 4.28903 1.28751 4.27179 1.20069 4.27179C1.11387 4.27179 1.02792 4.28903 0.947812 4.32249C0.867705 4.35596 0.795037 4.40499 0.734022 4.46675C0.672262 4.52777 0.623228 4.60044 0.589762 4.68054C0.556295 4.76065 0.539062 4.8466 0.539062 4.93342C0.539062 5.02024 0.556295 5.10619 0.589762 5.1863C0.623228 5.2664 0.672262 5.33907 0.734022 5.40009L3.52736 8.19342C3.78736 8.45342 4.20736 8.45342 4.46736 8.19342L11.534 1.13342C11.5958 1.0724 11.6448 0.999737 11.6783 0.91963C11.7117 0.839523 11.729 0.75357 11.729 0.666753C11.729 0.579936 11.7117 0.493983 11.6783 0.413876C11.6448 0.333769 11.5958 0.261102 11.534 0.200087C11.473 0.138327 11.4003 0.0892923 11.3202 0.0558259C11.2401 0.0223595 11.1542 0.00512695 11.0674 0.00512695C10.9805 0.00512695 10.8946 0.0223595 10.8145 0.0558259C10.7344 0.0892923 10.6617 0.138327 10.6007 0.200087L4.00069 6.80009Z" fill="#102B4E"/>
</svg>
