<svg width="21" height="15" viewBox="0 0 21 15" fill="none" xmlns="http://www.w3.org/2000/svg">
<path d="M19.9868 3.47343C21.4856 6.04913 20.6289 9.32296 18.0754 10.7868C17.9891 10.8357 17.9029 10.8824 17.8143 10.9267C17.7747 10.9465 17.7339 10.9651 17.6943 10.9838C17.65 11.0047 17.6069 11.0257 17.5626 11.0444C17.4938 11.0747 17.425 11.1026 17.3563 11.1306C17.3481 11.1329 17.3411 11.1364 17.333 11.1399C14.4939 12.2471 11.1105 10.9768 7.61871 12.3777C5.02203 13.4208 4.30526 14.4511 4.11179 15C4.96375 4.19952 12.6815 1.48629 12.6815 1.48629C15.3528 0.238063 18.7071 1.27184 19.9868 3.47343ZM2.74818 0.00147057C4.1689 0.0562487 5.26911 1.23338 5.20384 2.63079C5.20151 2.67857 5.19801 2.72519 5.19335 2.77181C5.19102 2.79279 5.18869 2.81377 5.18636 2.83475C5.18286 2.85689 5.18053 2.8802 5.17704 2.90351C5.17121 2.93847 5.16538 2.97227 5.15839 3.00724C5.15722 3.0119 5.15722 3.0154 5.15606 3.01889C4.87634 4.44077 3.49758 5.47572 3.17008 7.23442C2.92533 8.54209 3.1561 9.0922 3.32859 9.30897C-0.804195 6.21696 0.0792368 2.42799 0.0792368 2.42799C0.259886 1.03758 1.53375 -0.0451479 2.74818 0.00147057Z" fill="white"/>
</svg>
