<svg width="59" height="59" viewBox="0 0 59 59" fill="none" xmlns="http://www.w3.org/2000/svg">
<path d="M53.4761 15.9801C55.7197 19.9621 57 24.5627 57 29.457C57 44.645 44.686 56.959 29.498 56.959C14.3101 56.959 2 44.645 2 29.457C2 14.2691 14.3101 1.95898 29.498 1.95898C34.2083 1.95898 38.6406 3.14145 42.5168 5.22837M17.7165 11.9825C21.0799 9.70761 25.1323 8.38028 29.498 8.38028C41.1386 8.38028 50.5748 17.8165 50.5748 29.457C50.5748 41.0976 41.1386 50.5338 29.498 50.5338C17.8575 50.5338 8.42522 41.0976 8.42522 29.457C8.42522 26.9003 8.8794 24.4453 9.71731 22.1782M12.7674 16.6418C13.202 16.078 13.6601 15.5377 14.1457 15.0208L12.7674 16.6418ZM28.7306 29.1555L20.3829 21.7358L28.7306 29.1555ZM29.7251 29.7781L40.289 18.4664L29.7251 29.7781ZM29.498 12.2957V14.9504V12.2957ZM29.498 43.9676V46.6183V43.9676ZM46.6633 29.457H44.0086H46.6633ZM14.9914 29.457H12.3367H14.9914Z" fill="white"/>
<path d="M53.4761 15.9801C55.7197 19.9621 57 24.5627 57 29.457C57 44.645 44.686 56.959 29.498 56.959C14.3101 56.959 2 44.645 2 29.457C2 14.2691 14.3101 1.95898 29.498 1.95898C34.2083 1.95898 38.6406 3.14144 42.5168 5.22837M17.7165 11.9825C21.0799 9.70761 25.1323 8.38028 29.498 8.38028C41.1386 8.38028 50.5748 17.8165 50.5748 29.457C50.5748 41.0976 41.1386 50.5338 29.498 50.5338C17.8575 50.5338 8.42522 41.0976 8.42522 29.457C8.42522 26.9003 8.8794 24.4453 9.71731 22.1782M12.7674 16.6418C13.202 16.078 13.6601 15.5377 14.1457 15.0208M28.7306 29.1555L20.3829 21.7358M29.7251 29.7781L40.289 18.4664M29.498 12.2957V14.9504M29.498 43.9676V46.6183M46.6633 29.457H44.0086M14.9914 29.457H12.3367" stroke="#102B4E" stroke-width="2.349" stroke-miterlimit="10" stroke-linecap="round" stroke-linejoin="round"/>
</svg>
