<svg width="45" height="45" viewBox="0 0 45 45" fill="none" xmlns="http://www.w3.org/2000/svg">
<path d="M10.1996 39.4727H2.97748M10.1996 39.4727C11.2917 39.4727 12.1771 40.3581 12.1771 41.4502C12.1771 42.5424 11.2917 43.4277 10.1996 43.4277H2.97748C1.88535 43.4277 1 42.5424 1 41.4502C1 40.3581 1.88535 39.4727 2.97748 39.4727M10.1996 39.4727C11.2917 39.4727 12.1771 38.5874 12.1771 37.4953C12.1771 36.4031 11.2917 35.5178 10.1996 35.5178H2.97748C1.88535 35.5178 1 36.4031 1 37.4953C1 38.5874 1.88535 39.4727 2.97748 39.4727M24.8158 39.4727H17.5937M24.8158 39.4727C25.9079 39.4727 26.7932 40.3581 26.7932 41.4502C26.7932 42.5424 25.9079 43.4277 24.8158 43.4277H17.5937C16.5015 43.4277 15.6162 42.5424 15.6162 41.4502C15.6162 40.3581 16.5015 39.4727 17.5937 39.4727M24.8158 39.4727C25.9079 39.4727 26.7932 38.5874 26.7932 37.4953C26.7932 36.4031 25.9079 35.5178 24.8158 35.5178M17.5937 39.4727C16.5015 39.4727 15.6162 38.5874 15.6162 37.4953C15.6162 36.4031 16.5015 35.5178 17.5937 35.5178M24.8158 35.5178H17.5937M24.8158 35.5178C25.9079 35.5178 26.7932 34.6324 26.7932 33.5403C26.7932 32.4482 25.9079 31.5628 24.8158 31.5628H17.5937C16.5015 31.5628 15.6162 32.4482 15.6162 33.5403C15.6162 34.6324 16.5015 35.5178 17.5937 35.5178M33.8434 29.0695L32.6255 25.6306C32.5066 25.2949 32.7556 24.9426 33.1117 24.9426H40.6287C40.9747 24.9426 41.2226 25.2764 41.1225 25.6076L40.0768 29.0695M33.8434 29.0695H40.0768M33.8434 29.0695C31.8491 29.0695 30.2323 30.6862 30.2323 32.6805V40.9774C30.2323 42.3544 31.3487 43.4707 32.7257 43.4707H41.4524C42.8294 43.4707 43.9458 42.3544 43.9458 40.9774V32.9385C43.9458 30.8017 42.2135 29.0695 40.0768 29.0695M3.40737 30.0152C12.2956 26.8715 31.7576 18.002 38.6866 7.61878C38.7168 7.57352 38.7801 7.56814 38.8186 7.60662L41.0907 9.87869C41.1449 9.93285 41.2375 9.89449 41.2375 9.81789V1.55668C41.2375 1.5092 41.199 1.4707 41.1515 1.4707H33.4061C33.3295 1.4707 33.2912 1.56331 33.3453 1.61748L35.6276 3.89974C35.6625 3.93466 35.6637 3.98932 35.6267 4.02207C32.0657 7.17656 21.5557 14.3398 7.40532 18.2363" stroke="#102B4E" stroke-width="1.5" stroke-linecap="round"/>
</svg>
