<svg width="46" height="47" viewBox="0 0 46 47" fill="none" xmlns="http://www.w3.org/2000/svg">
<path d="M6.68101 12.8347L15 21.4119M19.2684 21.4119L26.7757 15.2633M30.7037 11.9727L38.3165 5.97266M1 37.0068V20.4094C1 19.425 1.79795 18.6271 2.78228 18.6271H7.12658C8.11091 18.6271 8.90886 19.425 8.90886 20.4094V43.6904C8.90886 44.6747 8.11091 45.4727 7.12658 45.4727H2.78228C1.79795 45.4727 1 44.6747 1 43.6904V40.3486M32.6354 28.9866V43.6904C32.6354 44.6747 31.8375 45.4727 30.8532 45.4727H26.6203C25.6359 45.4727 24.838 44.6747 24.838 43.6904V23.3056C24.838 22.3212 25.6359 21.5233 26.6203 21.5233H30.8532C31.8375 21.5233 32.6354 22.3212 32.6354 23.3056V25.422M7.68354 10.7182C7.68354 12.1332 6.53649 13.2803 5.12152 13.2803C3.70655 13.2803 2.55949 12.1332 2.55949 10.7182C2.55949 9.30326 3.70655 8.1562 5.12152 8.1562C6.53649 8.1562 7.68354 9.30326 7.68354 10.7182ZM19.4911 23.1942C19.4911 24.6091 18.3441 25.7562 16.9291 25.7562C15.5141 25.7562 14.3671 24.6091 14.3671 23.1942C14.3671 21.7792 15.5141 20.6322 16.9291 20.6322C18.3441 20.6322 19.4911 21.7792 19.4911 23.1942ZM31.2987 13.6144C31.2987 15.0294 30.1517 16.1765 28.7367 16.1765C27.3217 16.1765 26.1747 15.0294 26.1747 13.6144C26.1747 12.1995 27.3217 11.0524 28.7367 11.0524C30.1517 11.0524 31.2987 12.1995 31.2987 13.6144ZM43.1063 4.03468C43.1063 5.44965 41.9593 6.59671 40.5443 6.59671C39.1293 6.59671 37.9823 5.44965 37.9823 4.03468C37.9823 2.61971 39.1293 1.47266 40.5443 1.47266C41.9593 1.47266 43.1063 2.61971 43.1063 4.03468ZM12.8076 30.7689V43.6904C12.8076 44.6747 13.6055 45.4727 14.5899 45.4727H19.2684C20.2527 45.4727 21.0506 44.6747 21.0506 43.6904V30.7689C21.0506 29.7845 20.2527 28.9866 19.2684 28.9866H14.5899C13.6055 28.9866 12.8076 29.7845 12.8076 30.7689ZM36.5342 15.0625V43.6904C36.5342 44.6747 37.3321 45.4727 38.3165 45.4727H42.9949C43.9793 45.4727 44.7772 44.6747 44.7772 43.6904V15.0625C44.7772 14.0782 43.9793 13.2803 42.9949 13.2803H38.3165C37.3321 13.2803 36.5342 14.0782 36.5342 15.0625Z" stroke="white" stroke-width="1.5" stroke-linecap="round"/>
</svg>
