<svg width="28" height="28" viewBox="0 0 28 28" fill="none" xmlns="http://www.w3.org/2000/svg">
<circle cx="14" cy="14" r="14" fill="#102B4E"/>
<circle cx="14.0026" cy="13.9997" r="11.6667" fill="white"/>
<mask id="mask0_1447_20290" style="mask-type:alpha" maskUnits="userSpaceOnUse" x="0" y="0" width="28" height="28">
<circle cx="14" cy="14" r="14" fill="#9EB4AF"/>
</mask>
<g mask="url(#mask0_1447_20290)">
<path d="M1.41523 23.141C0.356936 23.4071 1.10818 21.7111 0.333333 22.4162L-2 19.6162V18.8406C-1.11457 17.9551 0.833376 16.2854 1.54172 16.6902C2.25006 17.0951 2.93311 16.6903 3.18609 16.4373L4.07152 15.5518L4.57748 15.0459C4.57748 15.0459 5.08339 14.6046 5.46291 14.4134C6.05152 14.117 6.44603 13.9446 7.1 14.0162C7.63408 14.0746 8.01136 14.1489 8.37218 14.5398C8.83918 15.0459 8.73333 15.6497 8.37218 16.1842C8.02564 16.6971 7.61324 16.8167 7.61324 17.5756C7.61324 18.3345 7.99271 18.3345 8.1192 18.967C8.22039 19.4729 8.18477 20.1253 7.73973 20.6114C7.19672 21.2045 6.51964 20.966 5.71589 20.9908C5.12135 21.0092 4.7871 20.7819 4.19801 20.8643C2.80743 21.0588 2.77697 22.7987 1.41523 23.141Z" fill="#102B4E"/>
</g>
<path d="M18.051 22.649C18.1522 23.3573 18.6834 24.2934 18.9364 24.6728L19.3159 25.1788L20.7073 23.9139L23.743 20.7517L26.1463 16.8305L26.7788 13.1623L26.1463 11.2649L25.3874 10L25.6404 11.5179C25.6404 11.8974 27.1312 12.1976 23.996 13.1623C22.8983 13.5 21.7715 14.6184 21.0645 16.0667C20.4907 17.2422 21.1442 18.2489 20.4543 19.3603C19.9004 20.2525 18.735 20.2617 18.2632 21.2C17.9888 21.7459 17.9498 21.9407 18.051 22.649Z" fill="#102B4E"/>
<path d="M9.27682 3.31562C8.87205 3.11323 7.59029 2.97831 7 2.93615L10.4152 2.3037C14.8424 1.29772 21.7163 3.07145 19.7755 3.5686C16.8 4.33078 15.9808 6.22489 14.8424 6.73085C13.9317 7.13562 12.945 6.64652 12.5656 6.35138C11.638 5.42379 9.68159 3.518 9.27682 3.31562Z" fill="#102B4E"/>
<path d="M17.28 10.324V19H15.66V15.208H11.586V19H9.966V10.324H11.586V14.056H15.66V10.324H17.28Z" fill="#102B4E"/>
</svg>
