<svg width="18" height="18" viewBox="0 0 18 18" fill="none" xmlns="http://www.w3.org/2000/svg">
<path d="M7.43804 12.7471C8.55987 11.5135 10.0299 10.6948 11.704 10.5404C14.0491 10.3236 16.2513 11.4466 17.7709 13.3536C16.6306 15.5073 14.674 17.0119 12.3289 17.2275C10.1106 17.4316 8.0272 16.4297 6.52259 14.7071L4.98339 18L4.09331 17.5907L5.07332 15.4935C3.37847 15.4716 1.81621 14.7879 0.863869 13.455C-0.149582 12.0323 -0.241819 10.2025 0.432662 8.51691C2.2578 8.44543 3.96533 9.13951 4.97993 10.5611C5.6867 11.5503 5.93574 12.7379 5.80084 13.9358L7.47494 10.3536C6.27586 8.397 5.9415 6.1153 6.80276 4.06303C7.72167 1.87241 9.78201 0.445042 12.2263 0C13.6294 2.03728 14.0595 4.49308 13.1394 6.6837C12.3162 8.64835 10.5695 9.9927 8.45495 10.5715L7.43804 12.7471Z" fill="white"/>
</svg>
