<svg width="49" height="42" viewBox="0 0 49 42" fill="none" xmlns="http://www.w3.org/2000/svg">
<path d="M19.8846 25.7359H30.6846M17.4171 7.05685H30.6846M1.74609 25.7359H4.84135M5.57084 1.00003H14.967M1.74609 1.00003H2.89991M44.3502 25.7359H46.6346M30.6846 28.5115H1.74609V4.2842H30.6846V28.5115ZM33.9687 12.6051H41.717L39.7 9.5534H30.6846V28.5115H46.6346V20.0482H33.9687V12.6051ZM33.9687 12.6051V20.0482H46.6346L41.717 12.6051H33.9687Z" stroke="white" stroke-width="1.74771" stroke-miterlimit="10" stroke-linecap="round" stroke-linejoin="round"/>
<path d="M42.3281 28.511C42.3281 30.9611 40.3431 32.9461 37.896 32.9461C35.4459 32.9461 33.4609 30.9611 33.4609 28.511C33.4609 26.0639 35.4459 24.0789 37.896 24.0789C40.3431 24.0789 42.3281 26.0639 42.3281 28.511Z" fill="#AAD69C"/>
<path d="M42.3281 28.511C42.3281 30.961 40.3431 32.946 37.896 32.946C35.4459 32.946 33.4609 30.961 33.4609 28.511C33.4609 26.0638 35.4459 24.0788 37.896 24.0788C40.3431 24.0788 42.3281 26.0638 42.3281 28.511Z" stroke="white" stroke-width="1.74771" stroke-miterlimit="10" stroke-linecap="round" stroke-linejoin="round"/>
<path d="M38.9545 28.5112C38.9545 29.0983 38.4808 29.572 37.8966 29.572C37.3125 29.572 36.8358 29.0983 36.8358 28.5112C36.8358 27.927 37.3125 27.4533 37.8966 27.4533C38.4808 27.4533 38.9545 27.927 38.9545 28.5112Z" stroke="#AAD69C" stroke-width="1.74771" stroke-miterlimit="10" stroke-linecap="round" stroke-linejoin="round"/>
<path d="M16.0587 28.511C16.0587 30.9611 14.0736 32.9461 11.6265 32.9461C9.17644 32.9461 7.19141 30.9611 7.19141 28.511C7.19141 26.0639 9.17644 24.0789 11.6265 24.0789C14.0736 24.0789 16.0587 26.0639 16.0587 28.511Z" fill="#AAD69C"/>
<path d="M16.0587 28.511C16.0587 30.961 14.0736 32.946 11.6265 32.946C9.17644 32.946 7.19141 30.961 7.19141 28.511C7.19141 26.0638 9.17644 24.0788 11.6265 24.0788C14.0736 24.0788 16.0587 26.0638 16.0587 28.511Z" stroke="white" stroke-width="1.74771" stroke-miterlimit="10" stroke-linecap="round" stroke-linejoin="round"/>
<path d="M12.6851 28.5112C12.6851 29.0983 12.2114 29.572 11.6272 29.572C11.0401 29.572 10.5664 29.0983 10.5664 28.5112C10.5664 27.927 11.0401 27.4533 11.6272 27.4533C12.2114 27.4533 12.6851 27.927 12.6851 28.5112Z" stroke="#AAD69C" stroke-width="1.74771" stroke-miterlimit="10" stroke-linecap="round" stroke-linejoin="round"/>
<path d="M1 33.6902H47.3765" stroke="white" stroke-width="1.74771" stroke-miterlimit="10" stroke-linecap="round" stroke-linejoin="round"/>
<path d="M36.8906 40.9998H47.3767" stroke="white" stroke-width="1.74771" stroke-miterlimit="10" stroke-linecap="round" stroke-linejoin="round"/>
<path d="M1 40.9998H11.4832" stroke="white" stroke-width="1.74771" stroke-miterlimit="10" stroke-linecap="round" stroke-linejoin="round"/>
<path d="M18.9453 40.9998H29.4314" stroke="white" stroke-width="1.74771" stroke-miterlimit="10" stroke-linecap="round" stroke-linejoin="round"/>
</svg>
